# Blender 4.5.3 LTS
# www.blender.org
mtllib grass.mtl
o Plane
v 0.050000 0.073202 -0.000000
v 0.050000 -0.073202 -0.000000
v -0.050000 0.073202 0.000000
v -0.050000 -0.073202 0.000000
v -0.039205 0.469259 -0.000000
v -0.046899 0.295873 -0.000000
v 0.046899 0.295873 -0.000000
v 0.039205 0.469259 -0.000000
v -0.028228 0.680056 -0.000000
v 0.028228 0.680056 -0.000000
v -0.000000 0.926798 -0.000000
vn 0.9999 -0.0000 0.0131
vn -0.9999 -0.0000 0.0131
vn 0.0002 1.0000 -0.0000
vt 0.000000 0.000000
vt 0.000000 1.000000
vt 1.000000 1.000000
vt 1.000000 0.000000
s 1
usemtl Material
f 1/1/1 3/2/2 4/3/2 2/4/1
f 3/2/2 1/1/1 7/1/1 6/2/2
f 6/2/2 7/1/1 8/1/1 5/2/2
f 5/2/2 8/1/1 10/1/1 9/2/2
f 9/2/2 10/1/1 11/2/3
